<svg xmlns="http://www.w3.org/2000/svg" version="1.1" xmlns:xlink="http://www.w3.org/1999/xlink" xmlns:svgjs="http://svgjs.dev/svgjs" viewBox="0 0 2400 800" opacity="0.65"><defs><linearGradient x1="50%" y1="0%" x2="50%" y2="100%" id="sssurf-grad"><stop stop-color="hsla(0, 0%, 90%, 1.00)" stop-opacity="1" offset="0%"></stop><stop stop-color="hsla(0, 0%, 98%, 1.00)" stop-opacity="1" offset="100%"></stop></linearGradient></defs><g fill="url(#sssurf-grad)" transform="matrix(1,0,0,1,0,-21.837066650390625)"><path d="M 0 321.97032570178465 Q 546.300972602788 450 800 318.6741595093029 Q 1355.1699183403098 450 1600 321.74380334391356 Q 2094.769532894473 450 2400 322.86845987290263 L 2400 800 L 0 800 L 0 320.78023439383946 Z" transform="matrix(1,0,0,1,0,25)" opacity="0.05"></path><path d="M 0 321.97032570178465 Q 546.300972602788 450 800 318.6741595093029 Q 1355.1699183403098 450 1600 321.74380334391356 Q 2094.769532894473 450 2400 322.86845987290263 L 2400 800 L 0 800 L 0 320.78023439383946 Z" transform="matrix(1,0,0,1,0,50)" opacity="0.37"></path><path d="M 0 321.97032570178465 Q 546.300972602788 450 800 318.6741595093029 Q 1355.1699183403098 450 1600 321.74380334391356 Q 2094.769532894473 450 2400 322.86845987290263 L 2400 800 L 0 800 L 0 320.78023439383946 Z" transform="matrix(1,0,0,1,0,75)" opacity="0.68"></path><path d="M 0 321.97032570178465 Q 546.300972602788 450 800 318.6741595093029 Q 1355.1699183403098 450 1600 321.74380334391356 Q 2094.769532894473 450 2400 322.86845987290263 L 2400 800 L 0 800 L 0 320.78023439383946 Z" transform="matrix(1,0,0,1,0,100)" opacity="1.00"></path></g></svg>