<svg xmlns="http://www.w3.org/2000/svg" version="1.1" xmlns:xlink="http://www.w3.org/1999/xlink" xmlns:svgjs="http://svgjs.dev/svgjs" viewBox="0 0 800 800"><defs><linearGradient x1="50%" y1="0%" x2="50%" y2="100%" id="ffflurry-grad" gradientTransform="rotate(270)"><stop stop-color="hsl(0, 0%, 100%)" stop-opacity="1" offset="0%"></stop><stop stop-color="hsl(1, 15%, 92%)" stop-opacity="1" offset="45%"></stop><stop stop-color="hsl(167, 5%, 97%)" stop-opacity="1" offset="100%"></stop></linearGradient></defs><rect width="100%" height="100%" fill="hsl(0, 0%, 100%)"></rect><g fill="url(#ffflurry-grad)"><rect width="33" height="3" x="23.5" y="28.5" rx="1.5" transform="rotate(45, 40, 30)" opacity="0.79"></rect><rect width="451" height="3" x="-180.5" y="403.5" rx="1.5" transform="rotate(45, 45, 405)" opacity="0.52"></rect><rect width="359" height="3" x="-70.5" y="163.5" rx="1.5" transform="rotate(45, 109, 165)" opacity="0.16"></rect><rect width="507" height="3" x="478.5" y="435.5" rx="1.5" transform="rotate(45, 732, 437)" opacity="0.66"></rect><rect width="789" height="3" x="324.5" y="730.5" rx="1.5" transform="rotate(45, 719, 732)" opacity="0.33"></rect><rect width="293" height="3" x="104.5" y="313.5" rx="1.5" transform="rotate(45, 251, 315)" opacity="0.50"></rect><rect width="275" height="3" x="378.5" y="576.5" rx="1.5" transform="rotate(45, 516, 578)" opacity="0.45"></rect><rect width="320" height="3" x="82" y="761.5" rx="1.5" transform="rotate(45, 242, 763)" opacity="0.75"></rect><rect width="561" height="3" x="139.5" y="702.5" rx="1.5" transform="rotate(45, 420, 704)" opacity="0.58"></rect><rect width="351" height="3" x="-123.5" y="765.5" rx="1.5" transform="rotate(45, 52, 767)" opacity="0.89"></rect><rect width="274" height="3" x="424" y="40.5" rx="1.5" transform="rotate(45, 561, 42)" opacity="0.68"></rect><rect width="223" height="3" x="149.5" y="114.5" rx="1.5" transform="rotate(45, 261, 116)" opacity="0.95"></rect><rect width="462" height="3" x="-185" y="218.5" rx="1.5" transform="rotate(45, 46, 220)" opacity="0.51"></rect><rect width="321" height="3" x="244.5" y="88.5" rx="1.5" transform="rotate(45, 405, 90)" opacity="0.90"></rect><rect width="418" height="3" x="547" y="581.5" rx="1.5" transform="rotate(45, 756, 583)" opacity="0.52"></rect><rect width="186" height="3" x="363" y="156.5" rx="1.5" transform="rotate(45, 456, 158)" opacity="0.36"></rect><rect width="689" height="3" x="234.5" y="490.5" rx="1.5" transform="rotate(45, 579, 492)" opacity="0.42"></rect><rect width="367" height="3" x="422.5" y="144.5" rx="1.5" transform="rotate(45, 606, 146)" opacity="0.90"></rect><rect width="369" height="3" x="159.5" y="52.5" rx="1.5" transform="rotate(45, 344, 54)" opacity="0.88"></rect><rect width="345" height="3" x="189.5" y="535.5" rx="1.5" transform="rotate(45, 362, 537)" opacity="0.50"></rect><rect width="62" height="3" x="44" y="550.5" rx="1.5" transform="rotate(45, 75, 552)" opacity="0.48"></rect><rect width="70" height="3" x="217" y="587.5" rx="1.5" transform="rotate(45, 252, 589)" opacity="0.70"></rect><rect width="242" height="3" x="246" y="233.5" rx="1.5" transform="rotate(45, 367, 235)" opacity="0.63"></rect><rect width="60" height="3" x="730" y="265.5" rx="1.5" transform="rotate(45, 760, 267)" opacity="0.23"></rect><rect width="128" height="3" x="259" y="660.5" rx="1.5" transform="rotate(45, 323, 662)" opacity="0.53"></rect><rect width="172" height="3" x="142" y="681.5" rx="1.5" transform="rotate(45, 228, 683)" opacity="0.99"></rect><rect width="607" height="3" x="-15.5" y="403.5" rx="1.5" transform="rotate(45, 288, 405)" opacity="0.08"></rect><rect width="242" height="3" x="151" y="30.5" rx="1.5" transform="rotate(45, 272, 32)" opacity="0.51"></rect><rect width="433" height="3" x="-77.5" y="740.5" rx="1.5" transform="rotate(45, 139, 742)" opacity="0.97"></rect><rect width="437" height="3" x="513.5" y="130.5" rx="1.5" transform="rotate(45, 732, 132)" opacity="0.99"></rect><rect width="644" height="3" x="-173" y="639.5" rx="1.5" transform="rotate(45, 149, 641)" opacity="0.29"></rect><rect width="542" height="3" x="-120" y="261.5" rx="1.5" transform="rotate(45, 151, 263)" opacity="0.88"></rect><rect width="38" height="3" x="14" y="309.5" rx="1.5" transform="rotate(45, 33, 311)" opacity="0.32"></rect><rect width="854" height="3" x="158" y="684.5" rx="1.5" transform="rotate(45, 585, 686)" opacity="0.24"></rect><rect width="595" height="3" x="374.5" y="294.5" rx="1.5" transform="rotate(45, 672, 296)" opacity="0.20"></rect><rect width="219" height="3" x="29.5" y="27.5" rx="1.5" transform="rotate(45, 139, 29)" opacity="0.61"></rect><rect width="368" height="3" x="204" y="301.5" rx="1.5" transform="rotate(45, 388, 303)" opacity="0.92"></rect><rect width="463" height="3" x="76.5" y="161.5" rx="1.5" transform="rotate(45, 308, 163)" opacity="0.19"></rect><rect width="577" height="3" x="-171.5" y="474.5" rx="1.5" transform="rotate(45, 117, 476)" opacity="0.87"></rect><rect width="517" height="3" x="390.5" y="40.5" rx="1.5" transform="rotate(45, 649, 42)" opacity="0.43"></rect><rect width="477" height="3" x="397.5" y="376.5" rx="1.5" transform="rotate(45, 636, 378)" opacity="0.63"></rect><rect width="122" height="3" x="300" y="763.5" rx="1.5" transform="rotate(45, 361, 765)" opacity="0.72"></rect><rect width="293" height="3" x="121.5" y="490.5" rx="1.5" transform="rotate(45, 268, 492)" opacity="0.57"></rect><rect width="464" height="3" x="-131" y="325.5" rx="1.5" transform="rotate(45, 101, 327)" opacity="0.93"></rect><rect width="260" height="3" x="-108" y="589.5" rx="1.5" transform="rotate(45, 22, 591)" opacity="0.37"></rect><rect width="133" height="3" x="369.5" y="459.5" rx="1.5" transform="rotate(45, 436, 461)" opacity="0.22"></rect><rect width="595" height="3" x="133.5" y="611.5" rx="1.5" transform="rotate(45, 431, 613)" opacity="0.95"></rect><rect width="77" height="3" x="474.5" y="130.5" rx="1.5" transform="rotate(45, 513, 132)" opacity="0.10"></rect><rect width="175" height="3" x="205.5" y="246.5" rx="1.5" transform="rotate(45, 293, 248)" opacity="0.30"></rect><rect width="386" height="3" x="338" y="199.5" rx="1.5" transform="rotate(45, 531, 201)" opacity="0.99"></rect><rect width="136" height="3" x="452" y="755.5" rx="1.5" transform="rotate(45, 520, 757)" opacity="0.66"></rect><rect width="253" height="3" x="461.5" y="91.5" rx="1.5" transform="rotate(45, 588, 93)" opacity="0.80"></rect><rect width="389" height="3" x="12.5" y="57.5" rx="1.5" transform="rotate(45, 207, 59)" opacity="0.43"></rect><rect width="42" height="3" x="655" y="186.5" rx="1.5" transform="rotate(45, 676, 188)" opacity="0.19"></rect><rect width="201" height="3" x="282.5" y="134.5" rx="1.5" transform="rotate(45, 383, 136)" opacity="0.84"></rect><rect width="425" height="3" x="-184.5" y="119.5" rx="1.5" transform="rotate(45, 28, 121)" opacity="0.76"></rect><rect width="228" height="3" x="24" y="380.5" rx="1.5" transform="rotate(45, 138, 382)" opacity="0.69"></rect><rect width="249" height="3" x="398.5" y="81.5" rx="1.5" transform="rotate(45, 523, 83)" opacity="0.98"></rect><rect width="471" height="3" x="-39.5" y="411.5" rx="1.5" transform="rotate(45, 196, 413)" opacity="0.37"></rect><rect width="495" height="3" x="505.5" y="46.5" rx="1.5" transform="rotate(45, 753, 48)" opacity="0.49"></rect><rect width="479" height="3" x="-166.5" y="635.5" rx="1.5" transform="rotate(45, 73, 637)" opacity="0.29"></rect><rect width="227" height="3" x="52.5" y="542.5" rx="1.5" transform="rotate(45, 166, 544)" opacity="0.54"></rect><rect width="498" height="3" x="286" y="298.5" rx="1.5" transform="rotate(45, 535, 300)" opacity="0.25"></rect><rect width="529" height="3" x="-233.5" y="484.5" rx="1.5" transform="rotate(45, 31, 486)" opacity="0.27"></rect><rect width="418" height="3" x="397" y="231.5" rx="1.5" transform="rotate(45, 606, 233)" opacity="0.13"></rect><rect width="152" height="3" x="-39" y="694.5" rx="1.5" transform="rotate(45, 37, 696)" opacity="0.36"></rect><rect width="149" height="3" x="448.5" y="392.5" rx="1.5" transform="rotate(45, 523, 394)" opacity="1.00"></rect><rect width="224" height="3" x="47" y="110.5" rx="1.5" transform="rotate(45, 159, 112)" opacity="0.85"></rect><rect width="316" height="3" x="498" y="581.5" rx="1.5" transform="rotate(45, 656, 583)" opacity="0.82"></rect><rect width="197" height="3" x="422.5" y="15.5" rx="1.5" transform="rotate(45, 521, 17)" opacity="0.98"></rect><rect width="87" height="3" x="343.5" y="374.5" rx="1.5" transform="rotate(45, 387, 376)" opacity="0.23"></rect><rect width="140" height="3" x="315" y="185.5" rx="1.5" transform="rotate(45, 385, 187)" opacity="0.59"></rect><rect width="117" height="3" x="366.5" y="22.5" rx="1.5" transform="rotate(45, 425, 24)" opacity="0.64"></rect><rect width="385" height="3" x="17.5" y="196.5" rx="1.5" transform="rotate(45, 210, 198)" opacity="0.42"></rect><rect width="473" height="3" x="-153.5" y="77.5" rx="1.5" transform="rotate(45, 83, 79)" opacity="0.32"></rect><rect width="386" height="3" x="265" y="247.5" rx="1.5" transform="rotate(45, 458, 249)" opacity="0.94"></rect><rect width="188" height="3" x="372" y="70.5" rx="1.5" transform="rotate(45, 466, 72)" opacity="0.23"></rect></g></svg>